<svg id="_x31__x2C_5" enable-background="new 0 0 24 24" height="512" viewBox="0 0 24 24" width="512" xmlns="http://www.w3.org/2000/svg"><path d="m20 19c-1.103 0-2-.897-2-2s.897-2 2-2 2 .897 2 2-.897 2-2 2zm0-2.5c-.276 0-.5.225-.5.5s.224.5.5.5.5-.225.5-.5-.224-.5-.5-.5z"/><path d="m23.25 24c-.414 0-.75-.336-.75-.75v-.5c0-.689-.561-1.25-1.25-1.25h-2.5c-.689 0-1.25.561-1.25 1.25v.5c0 .414-.336.75-.75.75s-.75-.336-.75-.75v-.5c0-1.517 1.233-2.75 2.75-2.75h2.5c1.517 0 2.75 1.233 2.75 2.75v.5c0 .414-.336.75-.75.75z"/><path d="m7 5c-.716 0-7-.07-7-2.5s6.284-2.5 7-2.5 7 .07 7 2.5-6.284 2.5-7 2.5zm-5.436-2.5c.47.4 2.446 1 5.436 1s4.966-.6 5.436-1c-.47-.4-2.446-1-5.436-1s-4.966.6-5.436 1zm10.956.094h.01z"/><path d="m7 9c-.716 0-7-.07-7-2.5 0-.414.336-.75.75-.75s.75.336.75.75c.218.299 2.267 1 5.5 1s5.282-.701 5.52-1.094c0-.414.326-.703.74-.703s.74.383.74.797c0 2.43-6.284 2.5-7 2.5z"/><path d="m7 13c-.716 0-7-.07-7-2.5 0-.414.336-.75.75-.75s.75.336.75.75c.218.299 2.267 1 5.5 1s5.282-.701 5.52-1.094c0-.414.326-.703.74-.703s.74.383.74.797c0 2.43-6.284 2.5-7 2.5z"/><path d="m7 17c-.716 0-7-.07-7-2.5v-12c0-.414.336-.75.75-.75s.75.336.75.75v12c.218.299 2.267 1 5.5 1s5.282-.701 5.52-1.094l-.02-11.906c0-.414.336-.75.75-.75s.75.336.75.75v12c0 2.43-6.284 2.5-7 2.5z"/></svg>