<svg id="_x31__x2C_5" enable-background="new 0 0 24 24" height="512" viewBox="0 0 24 24" width="512" xmlns="http://www.w3.org/2000/svg"><g id="XMLID_1_"><path d="m23.67 15.46c.21.64.33 1.33.33 2.04 0 .66-.1 1.29-.28 1.89.01-.05.01-.09.01-.14 0-.41-.34-.75-.75-.75h-.58c.07-.32.1-.66.1-1s-.03-.68-.1-1h.58c.42 0 .75-.34.75-.75 0-.1-.02-.2-.06-.29z"/><path d="m23.67 15.46c.04.09.06.19.06.29 0 .41-.33.75-.75.75h-.58c-.11-.54-.3-1.04-.57-1.5h1.15c.31 0 .58.19.69.46z"/><path d="m22.98 18.5c.41 0 .75.34.75.75 0 .05 0 .09-.01.14s-.03.1-.05.15c-.11.27-.37.46-.69.46h-1.15c.27-.46.46-.96.57-1.5z"/><path d="m19.54 11.33c1.94.64 3.49 2.19 4.13 4.13-.11-.27-.38-.46-.69-.46h-1.15c-.44-.76-1.07-1.39-1.83-1.83v-1.15c0-.31-.19-.58-.46-.69z"/><path d="m21.83 15c.27.46.46.96.57 1.5h-2.4v-1.5z"/><path d="m20 18.5h2.4c-.11.54-.3 1.04-.57 1.5h-1.83z"/><path d="m22.98 20c.32 0 .58-.19.69-.46-.64 1.94-2.19 3.49-4.13 4.13.27-.11.46-.38.46-.69v-1.15c.76-.44 1.39-1.07 1.83-1.83z"/><path d="m20 21.83v1.15c0 .31-.19.58-.46.69-.09.04-.19.06-.29.06-.41 0-.75-.34-.75-.75v-.58c.54-.11 1.04-.3 1.5-.57z"/><path d="m20 20v1.83c-.46.27-.96.46-1.5.57v-2.4z"/><path d="m18.5 18.5h1.5v1.5h-1.5z"/><path d="m18.5 16.5h1.5v2h-1.5z"/><path d="m18.5 15h1.5v1.5h-1.5z"/><path d="m20 13.17v1.83h-1.5v-2.4c.54.11 1.04.3 1.5.57z"/><path d="m20 12.02v1.15c-.46-.27-.96-.46-1.5-.57v-.58c0-.41.34-.75.75-.75.1 0 .2.02.29.06.27.11.46.38.46.69z"/><path d="m16.5 18.5h2v1.5h-2z"/><path d="m16.5 15h2v1.5h-2z"/><path d="m16.5 22.4v.58c0 .41-.34.75-.75.75-.1 0-.2-.02-.29-.06-.27-.11-.46-.38-.46-.69v-1.15c.46.27.96.46 1.5.57z"/><path d="m16.5 20v2.4c-.54-.11-1.04-.3-1.5-.57v-1.83z"/><path d="m15 18.5h1.5v1.5h-1.5z"/><path d="m15 16.5h1.5v2h-1.5z"/><path d="m15 15h1.5v1.5h-1.5z"/><path d="m16.5 12.6v2.4h-1.5v-1.83c.46-.27.96-.46 1.5-.57z"/><path d="m16.5 12.02v.58c-.54.11-1.04.3-1.5.57v-1.15c0-.31.19-.58.46-.69.09-.04.19-.06.29-.06.41 0 .75.34.75.75z"/><path d="m17.5 22.5c.34 0 .68-.03 1-.1v.58c0 .41.34.75.75.75.1 0 .2-.02.29-.06-.64.21-1.33.33-2.04.33s-1.4-.12-2.04-.33c.09.04.19.06.29.06.41 0 .75-.34.75-.75v-.58c.32.07.66.1 1 .1z"/><path d="m15.75 11.27c-.1 0-.2.02-.29.06.64-.21 1.33-.33 2.04-.33s1.4.12 2.04.33c-.09-.04-.19-.06-.29-.06-.41 0-.75.34-.75.75v.58c-.32-.07-.66-.1-1-.1s-.68.03-1 .1v-.58c0-.41-.34-.75-.75-.75z"/><path d="m15 18.5v1.5h-1.83c-.27-.46-.46-.96-.57-1.5z"/><path d="m15 15v1.5h-2.4c.11-.54.3-1.04.57-1.5z"/><path d="m11.33 15.46c.64-1.94 2.19-3.49 4.13-4.13-.27.11-.46.38-.46.69v1.15c-.76.44-1.39 1.07-1.83 1.83h-1.15c-.32 0-.58.19-.69.46z"/><path d="m15.46 23.67c-1.94-.64-3.49-2.19-4.13-4.13.11.27.38.46.69.46h1.15c.44.76 1.07 1.39 1.83 1.83v1.15c0 .31.19.58.46.69z"/><path d="m14 6.5v2.75c0 .41-.34.75-.75.75s-.75-.34-.75-.75v-1.08c.88-.37 1.5-.91 1.5-1.67z"/><path d="m12.5 2.5c0-.41.34-.75.75-.75s.75.34.75.75c0 .76-.62 1.3-1.5 1.67z"/><path d="m12.5 8.17v-1.74c.01-.01.02-.01.02-.02 0-.42.33-.71.74-.71.42 0 .74.39.74.8 0 .76-.62 1.3-1.5 1.67z"/><path d="m12.02 15h1.15c-.27.46-.46.96-.57 1.5h-.58c-.41 0-.75-.34-.75-.75 0-.05 0-.09.01-.14s.03-.1.05-.15c.11-.27.37-.46.69-.46z"/><path d="m13.26 5.7c-.41 0-.74.29-.74.71 0 .01-.01.01-.02.02v-2.26c.88-.37 1.5-.91 1.5-1.67v4c0-.41-.32-.8-.74-.8z"/><path d="m12.02 18.5h.58c.11.54.3 1.04.57 1.5h-1.15c-.31 0-.58-.19-.69-.46-.04-.09-.06-.19-.06-.29 0-.41.34-.75.75-.75z"/><path d="m11 17.5c0-.66.1-1.29.28-1.89-.01.05-.01.09-.01.14 0 .41.34.75.75.75h.58c-.07.32-.1.66-.1 1s.03.68.1 1h-.58c-.41 0-.75.34-.75.75 0 .1.02.2.06.29-.21-.64-.33-1.33-.33-2.04z"/><path d="m7 7.5c3.18 0 5.22-.68 5.5-1.07v1.74c-1.9.8-5.01.83-5.5.83s-3.6-.03-5.5-.83v-1.67c.22.3 2.27 1 5.5 1z"/><path d="m1.5 2.5c0-.41-.34-.75-.75-.75s-.75.34-.75.75c0-2.43 6.28-2.5 7-2.5s7 .07 7 2.5c0-.41-.34-.75-.75-.75s-.75.34-.75.75h-.06c-.47-.4-2.45-1-5.44-1s-4.96.6-5.44 1z"/><path d="m1.5 4.17v-1.67h.06c.48.4 2.45 1 5.44 1s4.97-.6 5.44-1h.06v1.67c-1.9.8-5.01.83-5.5.83s-3.6-.03-5.5-.83z"/><path d="m7 13c-.49 0-3.6-.03-5.5-.83v-1.67-.07c.3.4 2.33 1.07 5.5 1.07 1.03 0 2.05-.07 2.93-.21.42-.06.8.22.86.62.06.41-.22.8-.63.86-.96.15-2.05.23-3.16.23z"/><path d="m1.5 8.17c-.88-.37-1.5-.91-1.5-1.67 0-.41.34-.75.75-.75s.75.34.75.75z"/><path d="m1.5 12.17c-.88-.37-1.5-.91-1.5-1.67 0-.41.34-.75.75-.75.39 0 .71.3.75.68v.07z"/><path d="m7 17c-.72 0-7-.07-7-2.5v-4c0 .76.62 1.3 1.5 1.67v2.33c.22.3 2.27 1 5.5 1 .44 0 .87-.01 1.29-.04.4-.03.77.28.8.7.03.41-.28.77-.7.8-.44.03-.91.04-1.39.04z"/><path d="m.75 1.75c.41 0 .75.34.75.75v1.67c-.88-.37-1.5-.91-1.5-1.67 0-.41.34-.75.75-.75z"/><path d="m0 2.5c0 .76.62 1.3 1.5 1.67v2.33c0-.41-.34-.75-.75-.75s-.75.34-.75.75z"/><path d="m0 6.5c0 .76.62 1.3 1.5 1.67v2.26c-.04-.38-.36-.68-.75-.68-.41 0-.75.34-.75.75z"/></g></svg>