<svg id="_x31__x2C_5" enable-background="new 0 0 24 24" height="512" viewBox="0 0 24 24" width="512" xmlns="http://www.w3.org/2000/svg"><g id="XMLID_1_"><path d="m23.3 15.36c-.03-.03-.07-.06-.11-.08.04.02.08.04.11.08z"/><path d="m23.19 16.54-.69.44v-.23c0-.14-.11-.25-.25-.25h-1.8l1.94-1.22c.22-.15.49-.15.71-.05.03.01.06.03.09.05.04.02.08.05.11.08.05.04.09.09.13.15.22.35.11.81-.24 1.03z"/><path d="m14 10.5v1.75c0 .41-.34.75-.75.75s-.75-.34-.75-.75v-.08c.88-.37 1.5-.91 1.5-1.67z"/><path d="m12.5 4.17v-1.67c0-.41.34-.75.75-.75s.75.34.75.75c0 .76-.62 1.3-1.5 1.67z"/><path d="m14 6.5c0 .76-.62 1.3-1.5 1.67v-1.74c.01-.01.02-.01.02-.02 0-.42.33-.71.74-.71s.74.39.74.8z"/><path d="m14 10.5c0 .76-.62 1.3-1.5 1.67v-1.74c.01-.01.02-.01.02-.02 0-.42.33-.71.74-.71s.74.39.74.8z"/><path d="m13.26 5.7c-.41 0-.74.29-.74.71 0 .01-.01.01-.02.02v-2.26c.88-.37 1.5-.91 1.5-1.67v4c0-.41-.33-.8-.74-.8z"/><path d="m13.26 9.7c-.41 0-.74.29-.74.71 0 .01-.01.01-.02.02v-2.26c.88-.37 1.5-.91 1.5-1.67v4c0-.41-.33-.8-.74-.8z"/><path d="m17.1 19.88-4.6-2.9v-.23c0-.14.11-.25.25-.25h1.8l2.95 1.86 2.95-1.86h1.8c.14 0 .25.11.25.25v.23l-4.6 2.9c-.12.08-.26.12-.4.12s-.28-.04-.4-.12z"/><path d="m12.61 15.28c-.22-.15-.49-.15-.71-.05.25-.15.54-.23.85-.23h9.5c.31 0 .6.08.85.23-.22-.1-.49-.1-.71.05l-1.94 1.22h-5.9z"/><path d="m12.5 16.75v.23l-.69-.44c-.35-.22-.45-.68-.23-1.03.04-.06.08-.11.12-.15.04-.03.07-.06.11-.08.03-.02.06-.04.09-.05.22-.1.49-.1.71.05l1.94 1.22h-1.8c-.14 0-.25.11-.25.25z"/><path d="m11.81 15.28c-.04.02-.07.05-.11.08.03-.04.07-.06.11-.08z"/><path d="m12.5 22.25c0 .14.11.25.25.25h9.5c.14 0 .25-.11.25-.25v-5.27l.69-.44c.35-.22.46-.68.24-1.03-.04-.06-.08-.11-.13-.15.43.31.7.82.7 1.39v5.5c0 .97-.78 1.75-1.75 1.75h-9.5c-.97 0-1.75-.78-1.75-1.75v-5.5c0-.57.27-1.08.7-1.39-.04.04-.08.09-.12.15-.22.35-.12.81.23 1.03l.69.44z"/><path d="m1.5 6.5c.22.3 2.27 1 5.5 1 3.18 0 5.22-.68 5.5-1.07v1.74c-1.9.8-5.01.83-5.5.83s-3.6-.03-5.5-.83z"/><path d="m7 13c-.49 0-3.6-.03-5.5-.83v-1.67c.22.3 2.27 1 5.5 1 3.18 0 5.22-.68 5.5-1.07v1.74c-1.9.8-5.01.83-5.5.83z"/><path d="m0 2.5c0-2.43 6.28-2.5 7-2.5s7 .07 7 2.5c0-.41-.34-.75-.75-.75s-.75.34-.75.75h-.06c-.47-.4-2.45-1-5.44-1s-4.96.6-5.44 1h-.06c0-.41-.34-.75-.75-.75s-.75.34-.75.75z"/><path d="m7 5c-.49 0-3.6-.03-5.5-.83v-1.67h.06c.48.4 2.45 1 5.44 1s4.97-.6 5.44-1h.06v1.67c-1.9.8-5.01.83-5.5.83z"/><path d="m1.5 10.5v1.67c-.88-.37-1.5-.91-1.5-1.67 0-.41.34-.75.75-.75s.75.34.75.75z"/><path d="m1.5 6.5v1.67c-.88-.37-1.5-.91-1.5-1.67 0-.41.34-.75.75-.75s.75.34.75.75z"/><path d="m7 17c-.72 0-7-.07-7-2.5v-4c0 .76.62 1.3 1.5 1.67v2.33c.22.3 2.27 1 5.5 1 .43 0 .84-.01 1.24-.03.42-.03.77.3.79.71.02.42-.3.77-.71.79-.44.02-.87.03-1.32.03z"/><path d="m1.5 2.5v1.67c-.88-.37-1.5-.91-1.5-1.67 0-.41.34-.75.75-.75s.75.34.75.75z"/><path d="m1.5 4.17v2.33c0-.41-.34-.75-.75-.75s-.75.34-.75.75v-4c0 .76.62 1.3 1.5 1.67z"/><path d="m1.5 8.17v2.33c0-.41-.34-.75-.75-.75s-.75.34-.75.75v-4c0 .76.62 1.3 1.5 1.67z"/></g></svg>